<svg width="136" height="47" viewBox="0 0 136 47" fill="none" xmlns="http://www.w3.org/2000/svg">
<path fill-rule="evenodd" clip-rule="evenodd" d="M2.6599 30.3155H5.60481C5.8373 30.3155 6.01813 30.2111 6.09563 29.9501L9.50552 19.0665C9.55718 18.8577 9.76384 18.8577 9.84134 19.0665L13.897 29.8718C14.0004 30.1589 14.1554 30.3155 14.4395 30.3155H16.2736C16.532 30.3155 16.7386 30.185 16.8419 29.8718L20.7685 19.0665C20.846 18.8577 21.0785 18.8577 21.1301 19.0665L24.4625 29.9501C24.5142 30.1589 24.6692 30.3155 24.9275 30.3155H28.0533C28.3632 30.3155 28.5441 30.0806 28.4407 29.7413L23.3001 12.9853C23.2226 12.7504 23.0417 12.5677 22.8093 12.5677H20.1743C19.9418 12.5677 19.7352 12.7765 19.6577 12.9853L15.602 23.5557C15.5245 23.7906 15.3178 23.7645 15.2403 23.5557L11.1588 12.9853C11.0813 12.7765 10.8746 12.5677 10.6421 12.5677H8.00723C7.77474 12.5677 7.59391 12.7504 7.51641 12.9853L2.27241 29.7413C2.16908 30.1067 2.34991 30.3155 2.6599 30.3155ZM36.2163 30.6548C32.2381 30.6548 29.2932 27.6273 29.2932 23.7645C29.2932 19.8756 32.2381 16.8742 36.2163 16.8742C40.2204 16.8742 43.1395 19.8756 43.1395 23.7645C43.1395 27.6273 40.2204 30.6548 36.2163 30.6548ZM36.2163 27.4185C38.1021 27.4185 39.6262 25.7742 39.6262 23.7645C39.6262 21.7287 38.1021 20.1105 36.2163 20.1105C34.3563 20.1105 32.8064 21.7287 32.8064 23.7645C32.8064 25.7742 34.3563 27.4185 36.2163 27.4185ZM52.8525 30.6548C51.3284 30.6548 50.2951 30.0284 49.3393 29.2454C49.081 29.0366 48.8485 29.1149 48.8485 29.4803V29.8196C48.8485 30.0806 48.6418 30.3155 48.3835 30.3155H45.9552C45.6969 30.3155 45.4644 30.0806 45.4644 29.8196V13.0636C45.4644 12.8026 45.6969 12.5677 45.9552 12.5677H48.5127C48.771 12.5677 48.9776 12.8026 48.9776 13.0636V17.8399C48.9776 18.1792 49.2101 18.2835 49.5718 18.0226C50.3468 17.4484 51.4834 16.8742 52.9558 16.8742C56.4949 16.8742 59.2073 19.9017 59.2073 23.7645C59.2073 27.6273 56.4432 30.6548 52.8525 30.6548ZM52.2583 27.3924C54.1699 27.3924 55.694 25.7742 55.694 23.7645C55.694 21.7287 54.1699 20.1105 52.2583 20.1105C50.3984 20.1105 48.8742 21.7026 48.8742 23.7645C48.8742 25.8003 50.3725 27.3924 52.2583 27.3924ZM63.3146 15.778C64.3738 15.778 65.2779 14.8645 65.2779 13.7944C65.2779 12.7243 64.3738 11.8108 63.3146 11.8108C62.2555 11.8108 61.3514 12.7243 61.3514 13.7944C61.3514 14.8645 62.2555 15.778 63.3146 15.778ZM61.9972 30.3155H64.5546C64.8129 30.3155 65.0454 30.0806 65.0454 29.8196V17.7094C65.0454 17.4484 64.8129 17.2135 64.5546 17.2135H61.9972C61.7388 17.2135 61.5322 17.4484 61.5322 17.7094V29.8196C61.5322 30.0806 61.7388 30.3155 61.9972 30.3155ZM72.666 30.446C72.9244 30.446 73.1569 30.2372 73.1569 29.9762V27.836C73.1569 27.549 72.9244 27.3402 72.666 27.3402C71.7619 27.3402 71.4003 26.7921 71.4003 25.9569V13.0636C71.4003 12.8026 71.1678 12.5677 70.9094 12.5677H68.352C68.0937 12.5677 67.887 12.8026 67.887 13.0636V25.8786C67.887 29.3237 69.2562 30.446 72.666 30.446ZM80.9324 30.6548C77.0059 30.6548 74.2159 27.7578 74.2159 23.8167C74.2159 19.8495 77.1092 16.8742 80.9841 16.8742C84.8331 16.8742 87.6489 19.9017 87.6489 23.8689C87.6489 24.3387 87.5197 24.7302 87.0547 24.7302H78.1683C77.9358 24.7302 77.8583 24.8607 77.8842 25.0695C78.065 26.5572 79.3566 27.6534 81.0357 27.6534C82.1465 27.6534 82.9473 27.1575 83.4898 26.5311C83.774 26.2179 84.0065 26.1135 84.3165 26.1135H86.693C87.1064 26.1135 87.2872 26.4006 87.1322 26.8182C86.2797 29.0366 83.8515 30.6548 80.9324 30.6548ZM78.1942 22.6161H83.6448C83.8256 22.6161 83.9031 22.5378 83.8773 22.329C83.619 20.9457 82.4049 19.8756 80.9324 19.8756C79.5116 19.8756 78.3233 20.8935 77.9875 22.2507C77.9358 22.4334 77.9617 22.6161 78.1942 22.6161ZM90.1497 30.3155C89.8913 30.3155 89.6847 30.0806 89.6847 29.8196V13.0636C89.6847 12.8026 89.8913 12.5677 90.1497 12.5677H98.2869C102.007 12.5677 104.538 14.7601 104.538 18.4401C104.538 22.0419 101.671 24.3909 98.1061 24.3909H93.792C93.4821 24.3909 93.3271 24.5736 93.3271 24.8868V29.8196C93.3271 30.0806 93.0946 30.3155 92.8362 30.3155H90.1497ZM93.7662 21.3633H98.1061C99.8885 21.3633 100.87 19.8234 100.87 18.4662C100.87 17.0308 99.9144 15.6736 98.1061 15.6736H93.7662C93.4563 15.6736 93.3271 15.8302 93.3271 16.1434V20.8935C93.3271 21.2067 93.4563 21.3633 93.7662 21.3633ZM112.143 30.6548C108.681 30.6548 105.788 27.7056 105.788 23.7645C105.788 19.7973 108.733 16.8742 112.195 16.8742C113.667 16.8742 114.7 17.4484 115.63 18.2053C115.863 18.4141 116.121 18.388 116.121 18.0748V17.6833C116.121 17.4223 116.328 17.2135 116.586 17.2135H119.014C119.273 17.2135 119.505 17.4484 119.505 17.7094V26.3484C119.505 27.0009 119.738 27.288 120.177 27.3141C120.409 27.3402 120.616 27.4968 120.616 27.7317V30.0023C120.616 30.2372 120.435 30.446 120.177 30.446C118.472 30.446 117.465 29.9501 116.896 28.9583C116.741 28.6973 116.56 28.6451 116.302 28.9061C115.269 29.8718 114.08 30.6548 112.143 30.6548ZM112.737 27.4185C114.623 27.4185 116.121 25.8003 116.121 23.7645C116.121 21.7026 114.623 20.1105 112.737 20.1105C110.826 20.1105 109.327 21.7287 109.327 23.7645C109.327 25.7742 110.826 27.4185 112.737 27.4185ZM122.176 35.405C125.947 35.405 127.833 33.8129 129.616 29.5586L134.498 17.8399C134.627 17.5267 134.395 17.2135 134.059 17.2135H131.605C131.346 17.2135 131.217 17.3701 131.114 17.6311L128.272 24.5997C128.04 25.1478 127.73 25.1739 127.497 24.6258L124.527 17.6833C124.423 17.4223 124.268 17.2135 124.01 17.2135H121.453C121.143 17.2135 120.884 17.5006 121.039 17.9182L125.792 28.7756C125.947 29.141 125.999 29.4281 125.896 29.8196C125.534 31.4117 123.881 32.3252 122.176 32.3252C121.918 32.3252 121.685 32.534 121.685 32.795V34.9091C121.685 35.1701 121.918 35.405 122.176 35.405Z" fill="#5A78FF"/>
</svg>
